/* XPM */
static char *_ab5f8476676416cce7b62035def24c2NCLPrDg5VBatKLau[] = {
/* columns rows colors chars-per-pixel */
"64 64 45 1 ",
"  c #715B4D",
". c #6F5749",
"X c #5C4C42",
"o c #754532",
"O c #58483E",
"+ c #685448",
"@ c #7B6354",
"# c #704B3B",
"$ c #776153",
"% c #733D29",
"& c #836C5C",
"* c #52443C",
"= c #735E50",
"- c #7D6657",
"; c #675043",
": c #605047",
"> c #715142",
", c #6C2E18",
"< c #795746",
"1 c #654B3E",
"2 c #663E2F",
"3 c #887060",
"4 c #5D2612",
"5 c #694435",
"6 c #652914",
"7 c #7F695B",
"8 c #69574D",
"9 c #7A5241",
"0 c #4A3E37",
"q c #794C39",
"w c #6A3522",
"e c #72351F",
"r c #816857",
"t c #7A5B4B",
"y c #524036",
"u c #815E4E",
"i c #443933",
"p c #8D7565",
"a c #785F4F",
"s c #602F1D",
"d c #5F3829",
"f c #55200D",
"g c #80503D",
"h c #3D342F",
"j c #947D6C",
/* pixels */
"@$+;0X:::+15ws64464sdd*OXO0h+p7@@@--:+;1###g9>owwoq2y2XX:8Xi+@=@",
"@-$+0*O:+>#ow,6666ssdy1;+:0h+j7--&r7XX1115>99<oooo>#;#:8+=+y+&aa",
"--r 0*X+..#o%w,,e,ewo#<1:;Oi j7r&7rr*O11;#u<9<qoggu9u9=..=8O:&-@",
"$ a=00*X;>5%w,,,e,6%g#>1XOOi8j77&--r*X1;.9u9u@<oqqtqt9t . Xi;3-@",
"@  80yX. >5ww,e,,,,w5511;XX0$j-$@ =7*O;..5<9uu9%2q.o <<  8*h.3-r",
"@ =.O:. .>5dw,,,,,,w251yXX00=p&@.+a7O+ $@>99<<9o5#.o.t>>=.Oh.r@-",
"&a-=O:  1112ws6666,%%#.:**0h.@-=+.a X8  $9#q<###qq.o.>##.+Oi=$$-",
"7=$.*;= 11O2w,,466,%o<< ::*i.aa  =@.0X. =##5#5>#o#.5+15;;;*i$= =",
"@ $+O8@$ >y2wee6666wo9@=++O0 =@@$$7+iX.;8#9o5%9>5oto+1#.>+Xy@@=$",
"@a@.O+ $=t#2%e,,666w%#< 8X*0$$&7---=iX+. t9q22<ugqt%>.9t..:*@&&7",
"&  +*+$-ar95%,,6646w2o>+:XO*--&&@73 0X;+.<<q#oq#9o>% .>.>;*y-&3&",
"7$a+0X8= $##%e,6466woq>:::*0&@7r@@3.*X;;+>9qggg99o<ott51O*0i=r@a",
"&@$;h*O:*yy2ss6666,dd2OX+8:*3-@@--3;iX. =t>9gqgg9o9q><#>.X*0.---",
"&$@;i*XXOOyds4ff44sw22+=8+:X3r a&&p+hO. @uu<gq<qqo55#>#>t :X.  -",
"3@-$i0OX**y2d4ff46,oo# =8:XO&3==$-p hO  $uu<gq9o5o##q>##..:*= .-",
"rr&$hi*::;#5d4fff4425#<. :XO3p7@=@p=0+=a=uu9qo9o#o###><><.Oy-@@7",
"@&370*O:.t9o24444,w25>t= :XOp3&-@rp.i:&$=ru9ow#q>%##o#<. .OO&7-a",
"@@&$i**O+tqods446,e%q<u@=:O*&337@rj+h*8.+<@<%w5qt%#>51;.>;O*77-=",
"-$@;h**X;>#o%w446,e%o9t=.:XO&&3&-@p+iyX:X1.<%e%#<e%>o>.<>;X*-&7$",
"-$7.h0*OO;52%e66,,e%o><t.+XX-&-&@$3.i***XXX;%w%><%o9q> ;;;XO=@$ ",
"==3$0X:+:;#5%e,,6,ew%9.. +XO-3-3@@-=0X::8  ;2w5><%gugt >;1XX=   ",
"=$3+i*OXX.9q%e,,,,eoqu@r$8:O7p&-$@-=i*XXX::15%5;>oquu@ 1.;X*=.+ ",
"  &+y*OXO1#%%e,,,%%qgu&@8;X*$&77--r@0X::8+=<qo#.>qgur3@;+XO* .;;",
".  XyOy***2dwe,,ee%oqut++::* &7&r7&@*O:;8<<<oo9@>#quu3&r-;OO .11",
"=@=O0OOXXO5ww,66,e%%qu<.:XX0=&3&7&3aiyX; >><qo9&t5o<u&33r8:y+ ;1",
"+ @:hOXXOO52w,666,e%q<t ;OO0$@3&&p3aiyX1+>.>oo#+12#<taua=8:0; ++",
".. .i*+:OO52ww666,%%gut.;+O0&r7r@&3@y*OO8:.#%oo+O2.t$$t<.8:*;  .",
"=.. 0XXOO15o%e666,%wou<+X*0i7&-$a33$X; ;7=X5%q%88#.t= >..+Oy8a-$",
"a  80OOOO12ooe,,,e%%o<<1O**07p7@-3r+O:8+@$+5o9%  9at$ >.+X*y.$7r",
"@$- O::;;;#o%,,,ee%oqu<X8=80 337$7r=OX8>==t52#w <<@t-$<.X*0i.@rr",
"a==+y+8+.<9o%,,,,eooo<t@$ +*=337--7@*11>=au>2ys <9 >. >>;X*i=7--",
"@  +0X:;.<9o%e,6,,%qg9u@$ +y73-$-@$.*;1.-ut>2yw$<q.5;.9< ;Oi 7&-",
"7=$$y*X+.>#ooe,66,eooq<a=8Xy@@@a$@r-X8=a3&u9dyw #2>5;>9t@ :y$3&3",
"&--$iyX+.9qooe,6,,e%%q<$$XOO$$@-&r3@*:=u3&>#dys55d1#;5#>. ;*r3&&",
"&7@@0OX+.1#qoee,,,e%%q< :X:*=7@$773&*.$-3.11d2sdyd1;#qq>.X*y@@-&",
"377@O++. .5o%we,644w%5>+:::0=3--7-&$*;. $;Oyd2s2Od5519g>1O*ia=@7",
"3&$ O8 $@t#qow,,46sw%#ta 8:0@&-r3---O:+. X:122s2121#55o1;+Xh -@7",
"&===O $&&tqqow666,e%o#u@ +;*=&@r3-p-*:. @$$+5#w212><>221X;Oh.--7",
"$ @ *8$&pu#o%,666,,w2#.$=8:*@& =33p$y:8=@-= oo%#>2#q>221;X*h $==",
"..$ *8-&3u#o%e,4,,e%2>.  8X*$7$@33j$0X+  $r7goo9to>o>#211Oyi+ +.",
" .-.y+$@ru9go%e6ffe%o>< ++:O-3@&pjj=0O8 .=t@gq99<o>%##5+;+X08a;.",
" .r=y:=a-utq%eee44eoq>t ;+;O7p7&jpp;h08@t.>.oo#q9%o2#o#;11Oy.-;.",
" $p$*:8 a<qo%%ee64%oq<t.++XO7p&&p@&Xh*=ru.;8o552<%oo#oq ;1O0.3 .",
"r73$*:8 a<#ooo,,,6w%q<t +X:O&p&7&=rXyX8-t=.+5o5d1%%##%q<..X083==",
"@-7-*X8. u9o%w,,6f4wd51;:Oy03p&&7=&8*:+=u@u<%oo2#%oq>oqt .+*+& a",
"ar7&0O:+@t<ow44444ss2#;+.;**p3&&-$j8y++ t$a>we%%#%o#.oq  .;*+&$a",
"--&7y:88@-9o%66646,eo9t =+XXp&77@ 3+*+.  @ >%ws%#oo# ## .++*.3$=",
"7r&&yX8.au#o%e6446e%o9t.8:XX&$-7-+r+y:.=rt>.5sso#ooq.#5.+;:y+3@-",
"--37yX+=$<#o%sffff4w2#.;8+X:&@77=;$+0*OXXO1a9%%o5%##>52X  +y+prr",
"77p$h0OX:;#ds4444444ddOX++XO7&&7.;= i0X8:O1+#oo#2w#>>#>.8++y$j7r",
"r&p7i*X88;9os46666,w2y;:O*0*7&-= .a=iO8-au=.2ws25w#119<$8;Oi$j--",
"3pp 0:+ =.9os64466sw#5;8+X*O&7$ .=@$O; =<tut2w,5ow#.##9@=:*0=33&",
"p3p.0O:  <<ow64f444s55XX++X*&7 .. -$O;. ><t92w,o%,otqq>t@=+*83&-",
"&7p i0*+>><os44fffsw518:X8+O@7@= 87$*1X8>>9>o%eo%eo<o5#>@-+i83@-",
"3&p 0O8 .><os44ff4sw52+8:8Xy$-@-&$&-*OX8><99o%eoee9<o2#>>;Oi;3$&",
"&7r+yX. t<9qw44ff4sd22+8:*0i@-@-&$r=0OO:1>992w4d4s51ddyOOO0h+p@-",
"373.yX++><<qws4f46s251888XOO-@=@3@- 0OXOO515ddsssw<.#>88+8Oi8p--",
"p3p=iO+;1><qs44f44s2#>+ 8:::7@ $&&7$i1;+.>.<##we%w9#2>=+X:*i@j77",
"33p$iiyO1#gos4466,w%51;++:XO$$. -&r$0O1.>><>##sw%%tq258:X:*irp--",
"7-p-0X:X*y22s44,,,e%5#.1::Oy  . -r-=*OO15#>#22s%%%u95d::::*h$3@=",
"--r$0:88+Od5ds6ff4s%5#;1:X*0 $= -77=iy*O51;125ss%%u#22+;X:0h=r@-",
"-aa *:8=+155dwe4446w2511XXO0 raa-7&@iyO5#>t<>1w,%%<1d%at;8Oh+$ -",
"@+..0O+:+##5%s,44,ssdd2yXy*0@3@@r-7@*X1555####%e%%9<qo .1:;08$ @",
" +;;0X:OX1#5%s4ff4s%2dyyOX0i-p-@@-r@X+;1>#5o#1dw%%9gqq@ OX*i @  "
};
