/* XPM */
static char *_7810796915849e781a777f6e58d5dae5WrplFKGFQumjkrn[] = {
/* columns rows colors chars-per-pixel */
"64 64 12 1 ",
"  c #786355",
". c #745F52",
"X c #7C6759",
"o c #705C4E",
"O c #806B5D",
"+ c #6C584A",
"@ c #665245",
"# c #857062",
"$ c #8C7768",
"% c #5D4A3E",
"& c #967F6E",
"* c #A9927F",
/* pixels */
".o.. X#O  OXOOO ..XXoo++o@@++o++ $$$$#O. ..X.o  .XO$$O#OO#O X o+",
".OO   X.o.o. .  X  XX#OX$X  O#X@O$#OO .o++.OXOX OOO$#XOXX#O X @@",
"@.X.o.X X oo.o.XOO  XX +o .o O %.OOO o.oooXX    OOOOX  o.O#OX.+%",
"%%@+++o+@@%@@@  X +.Xo+@@@+++@%%@%@+%%+o.  . OX.X .o.. o.  X +@%",
"+++@@@o++++@+.OXOX.o..@%%+ X...+XXXO..o+ooXXO#X++X X  .o  X oo++",
"oO&$Xo .O&#    XXX .  .%+XX  X.o ..#$&$OXO##OOO..OOOX#.o XO.oo+o",
".X#&*$ .oOOX.o.+. XXXXo%o+oo...+@%@ $$#.XX XX.o X ....++. XX o..",
"o++X.%@o%%%+@@.@%%@@@@@+o@@@+o+@@%%%o.+@oo.o++o+ooo+@@@+++o.+@@o",
".#OO#$&$#O X.@o@@@++oO$$# ...+@@@  XO Xoo.X.+o o+.X.+@...   X.@+",
" &$$$$$$##O#$&$X#$XOXOOO$OO##$X+X&O#$#O .OO .X#OO$$Xo.O  OXO##O ",
"+$&$##$#X$$##O$..  o....O#OO#$X@o  .#OX.o.XXO#O OOO X     XXOX o",
"o+oX .XXXO++OO+%%%%+.++oXX+o +%%%%%% o@@@+o.XOXX#X.  o+.   X.@%@",
"X oX##+@.$XO$$$###XO$$.+. XO...++.  .X.@+  X###O#OX   o. #&&#OX ",
"X  OO$&+@#$$#$#OO XX$&&. #$O  o@+++o.#$X#&&##$O O +oXOX+O*&$#OOO",
" .o.o $ +o.o. XOXXXO#O.+. XX.  oo.. OO#.#&$XO#X.. o+..@%. #OXOOO",
"@%%%%%%+  o+@%%@+o+++%@+oo  .  o.o+%@.++ OX     . +@+%%@o+%%%%@+",
"o@%@o.##O#O  +@@@+.XXOOX o  XX.+.#O@@.$OX#OX.++  ..o@%+o .@o.ooo",
"O#&**&&$##XO.++@ XO$##O#O..XOOO.#$.+@++++ OO .+ XX.@%%%@+@%@X.@ ",
"O#&&#X  ...o+ +o . XXOOX ... .  O$O+@@@@ooo . oo  @@@%%@@%+@.+@X",
"O o .o. .o++oXoXO o+o+o.oo.ooo. o+o@%%@++++o+++o   o+@%%%@%%+%@ ",
"$&&&Xoo .o+++o.XX  oo oo....XOOXX .++@o+oo++@+++. O#O+@%@+o.+.XO",
"&&&$$# .o X ..XXXOOOO$##X   #O   . XOXO.+.o@@++@+o.O# +%+o. oo#$",
"$$##O# .o.XXXXOOX#####$Ooo. ##  X ##X. .+. X  ooo. O$$O .@+XX.X#",
"XXo.....+o  ...X#$#XXO +oo. X oo@%%@@%@oo..X .XXo+ O#$$$#o+ ....",
" .oooo.Xo+o   ..XOO X# o+o o++@%@X@%%%+ .o+ X.X# +oXX#$$#   . X ",
"  ..+ooo+@oX .o. .  XXX +..++ +@XO+@@@+o  .. ..++@o   OXXXOXO#$O",
"+o@o.o .o+   oo. .X ##X.+..@o.o. XX.o..oXX +o.ooo+.  XX .   X .@",
"+@%%%@+++@@.  oo X oX#.o++.ooo X.oo+o..+XX.o. .o .o ......o..+@o",
"XXXXX.+@+oo. X  XX . X.o+.XXO X# o OO#O.  XXXXX.   X o...X X X#&",
"#$##&$ ++   .o O##OXO#  X.XO##OO.o O##O..OOOXX . OOXX  ..XX.XO#O",
"O#OOO#XoX#OOXo.XOO#  X XOOXXX#O .  XX oo.O##OOX XX .+...oo++. XO",
"@+.o@@@@.X  ooo. XXX# XXXX oo  .+o+++o+.XOXXXOXXXXo+@+  .o++++..",
"o OX.++. XX XX.o.   .. XXO  O...oXXO###O$$#OX . +@++@+XXOO     o",
"X#OXo@+. XOXOX  XX ... XO#O$$$#  OOXXX##$$ ...o@@@@o++.. #OO##O ",
" OXXoo+o.oXOX.XXXOO .  XO##$#OX+ OOO ##$$Xoo.O.+@+o..  ..XX OOO ",
".   XX.o....+oXO o++@+o..++@%%@@. X...  Xo@@+.ooooo.o.OX. .o.  .",
"   XO#XXX . .oX# ..X OO.+.Xo+oo.#$$#OX.XO  ..X o X$$.o OXXOXX##O",
"OX OO####X.XX.o  ..   #X.OOX.X X##OOXX XOOX XXX..O#$O+.XOOOXXO#O",
"O XOO###$#.. o+.o.oooo..  X.o. . XX ..  XOX OOXXXXXOX..o XOXX##O",
".o XXO##$Oo. .. Xoo+@@++oo+@@@@@o .ooo. .XXX ooo.@%@@@@. o X.ooo",
" OOX XOOOOXO##OX..XXX OX. X o+o+++ooooX o.o O##++ #   O..X  ##.+",
"OOXX  XXXOOOOO$OXXO#X X.o   o. ++o..+oXO +@+o  oO&#.o. o+. X#$#o",
" X. X  .   X OOXOXXOOOX.o..    o..   XO#Oo+o...@ $XX.oX . X  #Oo",
"o+@o   .  ..O# OOOXXOXX    ... oO#XXOXOO .o@%%%@@%@o+@..+@%%@+o.",
"O##O ...XX  XXO####Xoo+. o+o+o.o  .XX.  X  . O$$$##OO#OoX$&$$$$#",
"O##.++++OXX. X##OXO oo@@+@@+@+o@++oo X.. #&$$$#X XX O#$ $&&$#O#X",
"OX o@@+@X#X.   .oo.  X +.++o+@@@@@++XX ..$&OXX   XOXOXXooo$$O$##",
"+ooo@@o+  @@ooo+o+++++ooo@@.o@++@@@+..  OX. .++@@oo++@%%@@@@@@@+",
"+.XX...OOX X#O+@+.X ++  .+@+@+oo++.... XOX O##$ooXO.+++ #$$O .o@",
".O# XXXOOXOO#$O+ OO.+@X oooo.oX  o XO X#OXXO#$$.oo.  .. XO#$X+%@",
"..++o.. XX###$$+.  X.+OX .. X++@   OOOOOOOOXOX.++. XOOOO  OO+@@o",
"o%%%@+++.+o .++%+@@@@@+.. ooo+%%++@o   o XO.+  o+++++o+ .%@@%@..",
"O XOO  .oX$#OO ...o...+. O##O +@++@oXX oo OX. X .oXXX  o. .+o. X",
"O XOO##..O$O.XXoo.. OO+.X$&#O..+@@@@oXX .X#OXXO  XXXX X@$**&#XX#",
".  O  O..XOXoooo  XXOO .O$# ++..%%@+ X o.OOXo  . XXO +@%.&$X..o ",
"oo.o+@+o.   +@@%@oo+@@+...X+%@+o%%%@..@@@ X ++++oXO +%%+o@@@++++",
" $$OX  o+.XOo.o+oo++oo XXO$$#Oo..@+.XO...oXX X . $&#  O##$  +@o ",
"$&#O ..++oOOOX..XX ++ XO  O$#XOX o. XOOX   XOOX.X$$$OO##$$XXO#$O",
"O#OX.oo+@+   X XO#Xo++. o.XX X.+++.O##X XX   X++ $$$#XX#O  . X  ",
" oo.+++++o   X  XO ++@@o+@%@+@%@oo+..+@+@@@+o@@+.X .oo+o+++@++@o",
". . X o. XX.o+. XO .oo+++@+o. XXOO##O X+@ ## oo.XO##.XX+o$$$O. X",
"+oo.  .+.XX .++. XX oo+@+O#OXXOO#O  OOX%+ #O... XOOXXXO.O$$O +oo",
"o.XXX .+oOO  +@.   .o+%%%oXOOOX###OOOO@%%%@o.   XXX##X @ ##X o+o",
".+++o+o+o Xo    ooo@@@%%%@@+...+o++@%%%@@@%@@@+..oo.++@+oooo...+"
};
