/* XPM */
static char *e9731f2c8720457c8084ee99960706f31FWOTPt0jOwwfOWP[] = {
/* columns rows colors chars-per-pixel */
"64 64 16 1 ",
"  c #796457",
". c #715C4E",
"X c #7D685A",
"o c #766153",
"O c #6C584B",
"+ c #5F5047",
"@ c #715F53",
"# c #594B42",
"$ c #675447",
"% c #836D5E",
"& c #50443C",
"* c #63554E",
"= c #695C55",
"- c #453A34",
"; c #8A7465",
": c #937C6C",
/* pixels */
" o$+-#++*=O=*O=OO=+##&##+#--$;Xoo   +$$+OOO ooX=*oo$#*++*=+-$ . ",
"oXo$-&#*O.O.OOOO@=+++#**O+&-$:X  %X%##++$$. o   @ @==@*==@*&$%oo",
" XX.&&#$.@O....X%X@=@.@+++#-.:XX%XXX&#+$$OXX    XX%XXX ..@O&+%X ",
"o.o.&&&+$O$OO$o X $oX.O$###-O:XX%  X&#$O.XXoX%%XX  o oo...+-+%X ",
"o..O-&#O.O$+$O o o.OO$$+++#-@:Xo ..X&#$..O  X%XO$o@o@oo.oO&-O% X",
" ..O&+O..O$+$O.ooo.OO$+#+#--@;%oO$oX#O@  @oXo oOO@@.. ..oO#-OX  ",
"%o .#+..+$**OO.$OO@.O..*&&&-O  @$Oo.#O@@o =oo...oo..O.OO.O#-@ooX",
"X.oO&$o.$$+*O@@$$OO.o o@++&-O.@..@ O&+..@@@OOO......O$$$$+&-o..@",
" .o$#O  @O#*. X@OOOO. %o**&&..ooooX$-#.$O. @$O @O. @$$..OO#&  .o",
" o O#$. o =*@o  @.OOO.o@O+&&oo%XXX .-#OO.XX *=%%XXX@O. o..+& %%X",
"%..$&$oXo; = ..@O$O$OO.O+##&X %% X%O&#$$O@  oX @ Xo.@@@.O+&& %%%",
"Xoo$-#=@@X@@X o.OO$Oo@O+++&&% XXo ;O&+$$$Oo@%;%XXX  X $+#&&-@X o",
"% o$-&#+&&+*+*=@=@=*++++**+&;X  XX%+-+O.. @o%%%X% oo@o.O@#&&OXX ",
"%o $-&#######+#+OOOOO*=@O$+#;X.o%%;$-#O. XXXX%X XoOO@.O. @+#O..X",
"%  o-&#+###**+#+$O@  @ooO+##%%@.oX:O-#.. %% X% @.o..@.$O@.+&..O ",
"XX%o--&++O=**++**+#$OO@..*+#%;Xo. ;.-*@ o%X  Xoo@ .O..@O..#&X oX",
" %%X&&&+.  =*+**O@@=== @.+##;;% oX;O-+%  ;% @.Oo @@.O$.@@O##%XX@",
"  %o-&&#Oo.@**+$o@o XXX .+#&%%%% X:$-&O=O@XXo.O X oO$$$..+#&XX o",
"Xo $-&&#$...@o$. @@oo  oO+##%%%%  ;O-&#*++Oo.o.. oOO.O.@O$#& %Xo",
" oXO--&##$$$@ . % o@@@ooO$+# % % o%O-&&#+++$$OO.   o@..$$$##. o.",
".@%@-#+**O...@oX ooOOo@..$##X% ;ooX.&+**=@@$$OOOoo%%%o.O$++#....",
".o%$-&##+@  .@XXXXXXX%X%oO+#X;%Xo X@-&#++*+$$OO$O.o%;X.$.$+&@O$.",
"..%$&&###+O.@XXXX;%%%%;XO+#&o%XX  Xo&#+*==oX  ...@ %;;XOO+&&.O++",
"OO.#&#&&&&#+O oX;;; X% O$$+&.%X%XX% &#+==oo  @XX.Oo%%;;%%$##.$##",
"o .#-#&###+O*.@.X%% X% .+##-.%%%X%%o-&#*@.O Xo %oOO X%;;%O+&O.+#",
"$. +-#+###+=*O.@ o oXX @$#&-o %%%;;o-&#*O=@@oo@*$$.oo XXoO+&$.$$",
"OO.O-&$+#+*OO@.@ @  %% .$$#&%XXXo%% &&#+=*@O.@.*#O@   Xo.O+&$..O",
".OOO-####+$.oo..o o.X%oO#&&-X%Xoo;%o#$==X@+Oo oO=@.o@@@@.$#&OoXo",
"o..O-####+*@ Xo  X @oXo$#&&&X;X  %X$&+==  =O XX@o    .@@O+&&OoXX",
" o .#++$$O==@.o%%%XXX%o+==*&.;;XoXX@#+O.@  **=.@oXXXX  @+#&-O XX",
"o.@$&$OO.   @O.X%%%ooX X =$&.;%XXXX &++OoXX=*#+.XXo@O@@@$+&-@XXX",
" ..$-#+$. ooo@.@oXXX%  X .$&X%Xo  oO&+$@XXX@*+*   .O$O o.$#-.X%X",
"X@oo&&#$.@O@ X@.oooo@.o oO#&   oo X #O  ;;; *+*oO$OO$OXX @+&o%%%",
"%X o-&#O.@oo X o  o@ooo o+##oo X%X% &+ X;;@O++##++$OO$@@.@$&X%%%",
"%X  -#+$.O@X  XX   o@oo@*++&@X oXX%%&O %;@*$*+#&#+$OO@o.O+&&   %",
"%XX #$OOo.*.O.XXo+#$.O.*+++&@%X %XXo&$.o $+#**++#+$** X@$#&-o. X",
"%%o.#O@ X . @.o O==*.@ o.O+&o%XX%X  #$$.@+**=*++**O=+O@***#-.  X",
"%@@.#O %%X@  .O@  oo@. X.O+&@% X;X;X&+O@   ==@=***@X=+*++$#-O  %",
"o. .&Oo%;%..@OO..@O.OO@ @O+& %.@;%;o&+Oo X  X@=@@*=o=$+**+&-.ooo",
"OOo.&OX%;X.@ o.*o@ @O@@@.O+&oXo %;:o-#O..X%%%@@ X@.o@.**+#&-$.$O",
".$ O&$oX%% X;%XO##@o@@o@O$+#X% %;::@-#O..ooX%XXX  o..@=O$*+-Oo$O",
".OX.&+.oX%XXXX;X*+@% @ .$O+#X;X%::;$-&= o.OO@o.ooo@OO..O$+#&OX+O",
".o;o&+O. ooo XXX *oXX  .$$+#X;%%; X#-&@XX.$O.O$Ooo...O @$+#-O%.O",
"XX;o&+O.o@@o%% X%=.XX  .$#+#%;%X%@X#&#=X @.=..O+$..... @OO#&O;..",
"  XX&+OO@X o@.@ =++$+$$**#&-;;%%X.%O&+*oXXXo.@@OO.o.O Xo@.$&$%.o",
"oXX%-&+$X  @$#*O*++**OO*O$&&;;%%Xo:O&$$.   OO......O.o ..O$&$%oo",
"XX%X&+OOX%oo@$OO$OO@o o@oO##;%XX .%$&$O.@XoOO.$O.@o.o..o.$$&O;o.",
"XX%%&#OO XOOo@O$$..ooo .O+#+%oXX $X$&+O@%oO.=+*.@@...O$O$$+&$; X",
"XX;X&+$@ @..O*&&&#+O$O.*O$#+% XX.$o$-&#++#+  =o@O..OO$++.@O&$;XX",
"XX;o--#++OO#++**=++##&#+$$##X%%XO$..-&#**++O@ X@$O.@@.o.O$$&o:XX",
"X%;X-&+O=* @++O@o=OO*+=*#&-&X% o.Oo@-#= XXo=+**$O..** X O$#-o: X",
";;;.-+$.o@ @+$$O@.$*=*==*#&&%Xo.O. o#$@o  %XO==OO.@@=@oX@$&&@%%%",
";;:O-#+@@oX $$+#$+#*=*++**#&%X.OOOX #$O..oX $=@oO$@   @  o$&O%% ",
"%X;O--&$O.X@##+###*====+#O$# X ..OXo&$#O.@ =@ Xo@   .O.OXX$-O%oX",
"%%;O-#O... @+#+###+=*+==*O#&oX X%o% &##OO  oOoo.@o  O$$OO$#-+%o%",
"%XX$&#O@@oo $#+##*+**+==*&--    %oX@-##$+.  O$++##*+++####--$; X",
"%X%O&#O$O@XX$$*#==**====*##&  @ % X.-###++**#+*+*=X@  ====#-$;XX",
";;;.-#$$$.Xo++++=*+====@=+++X .o%%Xo-+$*@@@   =.o@X@*@@*+*&- :XX",
";%;o--&#+O .++*= @@ =**=O+##ooO. %Xo&#+=@@@@@oOOo%% *==*++&-X;XX",
"XX;X-#++&#++#+*  o @=@o*++#&..O. XX.&##+$OOO$**.oX%X@+****&-o; o",
" XXo-+*==##**==+#+*OO.O*+#&-.o..XXX@-&&++$****+$oX%@+=**++&-@X  ",
"X...&+==*$***=;=***OO$$$###-.Xo.XX% -&#+O. X ==. XX*+@oo*O#-$o.X",
" $OO&#**OO@OO*@*= =+###&#&&& ; oXXX &#++$$O..=    o% .@@+++-Oo. ",
".$++&#+##*=O.***+== *&&&#+-- ;X  XX #*$$O$$..*+. o  @oX@++&-. .."
};
