/* XPM */
static char *ac217f2286584d4ad729cb3d2b6cdaffjmbFd4U03cfOdl1D[] = {
/* columns rows colors chars-per-pixel */
"64 64 38 1 ",
"  c #715C4E",
". c #7A6456",
"X c #745F52",
"o c #6E584B",
"O c #786153",
"+ c #7E6859",
"@ c #685447",
"# c #846E5F",
"$ c #826A5B",
"% c #692B15",
"& c #785848",
"* c #8A7263",
"= c #6F5446",
"- c #795C4D",
"; c #773D28",
": c #634E42",
"> c #6D4737",
", c #784B38",
"< c #794F3E",
"1 c #774632",
"2 c #845C4A",
"3 c #72321C",
"4 c #856351",
"5 c #743721",
"6 c #6C4F40",
"7 c #6E402E",
"8 c #6C2F1A",
"9 c #825542",
"0 c #795443",
"q c #5C483C",
"w c #834E39",
"e c #917A6A",
"r c #693826",
"t c #7E422C",
"y c #604133",
"u c #5D2410",
"i c #A08674",
"p c #B09A85",
/* pixels */
"X OXO+*$O-2wt53%%85;1,66=:@@oooo.e*ee*4&&<<9<61;;1924<#+.#$O.. o",
"X$#.O..X &,1t388885t,22O*4O.$*+@#e#$#.&=6>&902,t,w222<..O#+.+O@:",
":O+O X+.O&,1;383335;,0&6 O  O#.qX$$#. -==,-00&<19w492<Xo-+$#.-oq",
"q:@ooo @:>yr8%883%%5,66q:@oo@@qq:q@oqq6=&0&<&O07,,=1&<- -.O+Oo:q",
"=oo:@@ o=6>rr553338r1<6yq@O.XXXo..+$XXo==,2944977<-,-&0&OO.Oo oo",
" $ee+oOX4e21;533333;1<&yo++.O+X OXX#*e*+4222249,,94w440=O.$X  o ",
"X.*ei*. =42,588%885t,9=yoo oXXXo::@.e*$ .9<w-<<<<0-, 0>6-O..O XX",
" oo+-y@oqyy78%8uuuu87>:@o@:@o o:::::  @: >,1>>6>>,=>:qy6==  @@@ ",
"X*#$#eee#4&<;%%uuu8r12**#.XXXo@::.O.+XOo <<1>7<67,-1=6<&&OO..X@@",
".ie*ee**$$29wwt8;t5t194$*#$#**+o+i##**4XX29,11229941&o9--+.$**$.",
"oee*##*#.*49t;t%383;1,&-+####*+: .OX#+.-X&9<www<0121--0--O.++.. ",
" o +OX+.O.>7;5%uuuur1>6o..o O@:q:qqqXo6::6<,<1,<2101&=>&-OO.X:::",
"+O +*#o: #09wtt555;w920@ O+$OXXooOO.X.X@@&&92w9<9w&,0&,0-$ee#++O",
"+..$#eeo:$22wt38385tw4*XO#*$..o@ooooX**.#e*49w9,<1>,92w64iie*$$+",
"OX X O*O@=<17388835tw9&@X...X..  XXO+$*-$*$2ww01>1>><0>yoX#$+#$$",
":::qqq:@O->7ruuuu8877y:=  .OXOO X oq:X@o-2291t<,>7>>>qq>==q:qq@o",
"o@q: X#*$49,18uuu%r,<&4.. O.++XoX*$6:X*+O4491r>,<7<<7y6=--@ X   ",
"$*eiiie*#$9w78uu%3;w924$+XX+#+$X#e-=@@o==&42t57<&;,>7yq66:q@.X@O",
"+#ee*.OO 0,7r3uu%85t,94.OXXX.X..$*$o6::@==&&757>&5r>7yq>>:@@-o@+",
"+. OX X. =>7r5%%888r7>=-  X   X. o :qq6@=6==787<&;1<>qqyq:qq@q:.",
"eeie$  O =>7r8%%%85;1<=o XXX.##+.OX@@@ =ooo67r76&;w496:q6=o-oX+$",
"eeee*#OX -01;33%%3;tw44$.OO.##.O.O.+$.$&6&o>777667,22-@y6 OO  #e",
"*e##$#.Xo&91t53%8;;w92*+oo O**....##. .&=&O&<1>=6,<24#+-o@o++ +#",
"+. XXO  =&<1;3%%35;t,2&=o XO.. o@q:@:q:=o=&0110.=><24*##$ooOO XX",
"OX    X.o6,t;3%%%3;;,2&oo O oo@:@.:qqqo- 660,10$&7>&2$*##O.O .+.",
"..XXo - =6,1;8%%%85;w9--oXO@o.o@+$o@::o=X-==11>@=r,&---O.+$.$**$",
"@o@ X .X=6<1;3%%%%;;w2-&=XX@   X.+.X  X=OO->717 =7&-OO2& O.O..X@",
"o@qq:@o=6:71;3%%%85r12&=@oX   O+X  oo  6+Oo>7,7 X,o-Xo<o  o Xo: ",
"+++.+X=66=>1t58%83;;1&&=o-++$O+#. .$$$+=.OO01<5 -<--Oo=&X.O.O+*e",
"#*#*e*.o=&01;88335t1w2&&.X.$*#$$X .##$+&X+49,05 &9.-.O0& ..X++##",
"$##$$#.oO49,;88835t119-O$$+.+##.OO.++Oo=X4$2<&;X00 <o <&oooo O.$",
"@oXX@@@:o-<1;8%%83;,w0-4.+.  ..Xo @@oo@o+O-0<&;O0<o>6=<&  o@ooXX",
" .#+Oo= -2<1t58%%%5t1,&O++OO$XOX .+$#$+4*#421&7 67=>660-++.O.OO ",
"+#$. @o--291t58%%35;;,0.$*#*e*#..$$.O.$4*#0<7<7>>r666>,0O$+$##$O",
".#+.  oo =0w133%%3;;t<&.##**#$+o.+$+O###eO=6707>67<&0<,0-O..$$$.",
"X.O.+.X -&,1r833%%8rr7=  o@:qq:@X.+X X.O.=6qr>5>=7666<<&&XX X..X",
"OOO+$#+..-,<7333%%3;194-@X. o  O***#++XO+XO&1<;>-,440,,2O.+..##$",
"$..$$*#*$-,<15%%%%3;1<$.X$$+O...###$..O.$$.-1<;>&9442>1&.$+++#*$",
"$.+$$###*4,,;8%%%%3576& O.+O XOO..+O XXO.+O-1wt<2<&9&,1=-.+.+###",
"X .+.#*#*2>1;3883%8rr>6=ooo:@@@@ OX o XO OOO117>0ryry77&-o-.X   ",
"O$$+O+$+$20<t;53%85;104O-.+. o oo@  o .Oo oOw92>>,41<,9&&.XO#*X@",
"$$++..+.+22<;5;583;t,0--o..O  Ooo XOo .+-=6@1,0>2291,,<==-O.#** ",
"..X.+..XO&<,;;5333;tw&--oXO.OO. XOOOO.$#4&6o,,<r-w,w<1<-&X.O.*$ ",
" @@ .OO O&,11t3333;;w0-XOO.XXO. $#+++++$--=:rrrr6rr>>r1&=@q::@ X",
"$##+.XX O2<1t53335t;7>6 Ooo @oX ..X+.XXO4O-01w224992499oOee***e*",
"$##Xo@@=.-01;33333;;7,>:@@6@@o @ooo O.XX-#e*wwwt<119494-*ie*###+",
"#+. @@@@O491;38%%%35,0&=-oo o:@:::oo.+OX *e41;;t<,w94w9ooo*e#**#",
"oo  @@ooX&>7r8%u%%8r7>=oo@@X @oo::@o XXO$O&->rrry7>>6yrq::@@:::o",
"@X+.XXX+$40ww;%u%%5;7>&- o@@@o  ooXOX O+42-+2w9>>,9<6>>O#**$.X @",
"X$#..++$+-9wtt3u835577-- o  X +.. O+$O.#42249ww,1;<00<,-.+*e+@::",
"XXo@ OXOO-2wtt;u%85;1>4.OXX..oo@...+#++#444Ow;5775<-292+.O$$@::o",
" :qq:o@o 6>15%%uuu%8ry6oXO   oqqoo: OOO &2407;3778>6>,>XX:@:q:XX",
"$O.$$.XXo-49t;8%%%351<6 .+#*#.o@o@@o..O 0&291;3173,2<<0oXOX@ XO.",
"#O+$$##X&44w;58%%%5;w96 +ee*$XX@:@:: 4+O&&22,t31;5,2w,&6*ppi*+.*",
"O..+..+ &-2w53%%%35t99& $e*.o@XX::@o.4O &2291;315502,7yy-ee4OX O",
"  X @@o &&0,r8uuu%8r7y6   .@::o :q:@X-@::09<7r%78;2&7ry6o6:6=ooo",
".*e#.OOo=09w53%u%%8r1>-O.$ee#$ OX@oX.4- =<&&113;;w#2,<44$*OO@@ .",
"ee#$.XX=6<9wt58%83577<-.OO$*#+$+O X.444O00&&ww;5;t24w9$$$*+.$#*$",
"#*$+X  =66<,;588855r7>&- X.+O+X@ooX$*#.-9&&0,<85;t42wwO4.OOXO..O",
".  Xo@===0<,;588833r7>6=@::@o@q@ ooXX=66yy6>1y8r7;0,77==@@@@@@@ ",
"O.X..O  --<,r8%%855;7,66@:@ O.++$##*+OO6>&44<>r5t;421,O6o#**+XO+",
"o  O..Xo&&w<;8%%%85;7,<>=$*$++$$##OO++Oy>&42<,53;t2&<14&4*#$.ooo",
" X....O=o29,t3u%%83;7>>yq .##$+##*+$#+:yyy>>,<;5;t029w-:-#$+. oo",
"Xooo o oo&01;58%%%8r7>yyq:@oXOX@ oo@qqy:6>yyy>rr5;>,>7:o=  oXXXo"
};
